<svg width="167" height="44" viewBox="0 0 167 44" fill="none" xmlns="http://www.w3.org/2000/svg">
<g style="mix-blend-mode:screen">
<path d="M56.404 30V14.7885H61.2325V17.976C61.485 16.882 62.0005 16.0404 62.7789 15.4513C63.5784 14.8411 64.4621 14.5361 65.4299 14.5361C65.9348 14.5361 66.3556 14.5781 66.6922 14.6623V19.1437C66.1242 19.0806 65.6403 19.049 65.2405 19.049C62.5685 19.049 61.2325 20.7427 61.2325 24.13V30H56.404ZM80.6815 28.2011C79.1667 29.716 77.1259 30.4734 74.5591 30.4734C71.9923 30.4734 69.9409 29.716 68.4051 28.2011C66.8692 26.6863 66.1013 24.7507 66.1013 22.3943C66.1013 20.0379 66.8692 18.1128 68.4051 16.619C69.9409 15.1041 71.9923 14.3467 74.5591 14.3467C77.1259 14.3467 79.1667 15.1041 80.6815 16.619C82.2174 18.1128 82.9853 20.0379 82.9853 22.3943C82.9853 24.7507 82.2174 26.6863 80.6815 28.2011ZM74.5591 26.3707C75.6742 26.3707 76.5578 26.0025 77.21 25.2661C77.8623 24.5298 78.1884 23.5725 78.1884 22.3943C78.1884 21.2161 77.8623 20.2588 77.21 19.5224C76.5578 18.786 75.6742 18.4178 74.5591 18.4178C73.423 18.4178 72.5288 18.786 71.8766 19.5224C71.2454 20.2588 70.9298 21.2161 70.9298 22.3943C70.9298 23.5725 71.2454 24.5298 71.8766 25.2661C72.5288 26.0025 73.423 26.3707 74.5591 26.3707ZM91.3347 30.4734C88.852 30.4734 86.8743 29.737 85.4016 28.2643C83.9288 26.7705 83.1925 24.8138 83.1925 22.3943C83.1925 19.9747 83.9288 18.0286 85.4016 16.5558C86.8743 15.0831 88.852 14.3467 91.3347 14.3467C93.5859 14.3467 95.4163 14.9043 96.826 16.0193C98.2356 17.1344 99.0351 18.6493 99.2245 20.5638H94.3959C94.0382 19.1332 93.0284 18.4178 91.3662 18.4178C90.3143 18.4178 89.4937 18.765 88.9046 19.4593C88.3155 20.1536 88.021 21.1319 88.021 22.3943C88.021 23.6566 88.3155 24.635 88.9046 25.3293C89.4937 26.0236 90.3143 26.3707 91.3662 26.3707C93.0284 26.3707 94.0382 25.6974 94.3959 24.3509H99.2245C99.0351 26.2234 98.2356 27.7172 96.826 28.8323C95.4163 29.9264 93.5859 30.4734 91.3347 30.4734ZM115.655 30H109.753L104.925 23.4042V30H100.096V7.90866H104.925V21.1319L109.879 14.7885H115.56L109.501 21.984L115.655 30ZM129.681 21.6053C129.681 22.2365 129.639 22.9413 129.554 23.7197H118.319C118.361 24.7086 118.698 25.4765 119.329 26.0236C119.96 26.5706 120.813 26.8441 121.886 26.8441C123.358 26.8441 124.305 26.3707 124.726 25.4239H129.46C129.228 26.9177 128.408 28.138 126.998 29.0848C125.61 30.0105 123.905 30.4734 121.886 30.4734C119.298 30.4734 117.257 29.758 115.763 28.3274C114.269 26.8967 113.522 24.919 113.522 22.3943C113.522 19.9116 114.269 17.955 115.763 16.5243C117.257 15.0726 119.245 14.3467 121.728 14.3467C124.084 14.3467 125.999 15.02 127.472 16.3665C128.944 17.713 129.681 19.4593 129.681 21.6053ZM118.319 20.7216H124.915C124.894 19.7117 124.61 18.9333 124.063 18.3863C123.516 17.8392 122.727 17.5657 121.696 17.5657C120.665 17.5657 119.845 17.8603 119.235 18.4494C118.646 19.0174 118.34 19.7749 118.319 20.7216ZM138.472 26.2445C139.145 26.2445 139.703 26.2129 140.145 26.1498V30C139.219 30.1683 138.146 30.2525 136.926 30.2525C136.379 30.2525 135.895 30.2209 135.474 30.1578C135.053 30.0947 134.58 29.9579 134.054 29.7475C133.528 29.5161 133.097 29.211 132.76 28.8323C132.423 28.4536 132.129 27.9066 131.876 27.1912C131.645 26.4759 131.529 25.6343 131.529 24.6665V18.6072H129.131V14.7885H131.529V10.2756H136.358V14.7885H139.798V18.6072H136.358V23.6566C136.358 24.6876 136.536 25.3819 136.894 25.7395C137.252 26.0762 137.778 26.2445 138.472 26.2445ZM159.84 14.7885H164.637V36.3118H159.808V28.6745H159.84V27.854C159.419 28.6114 158.767 29.2321 157.883 29.716C157.021 30.1788 156.063 30.4103 155.011 30.4103C152.802 30.4103 151.056 29.6634 149.773 28.1696C148.489 26.6758 147.848 24.7507 147.848 22.3943C147.848 20.0799 148.51 18.1654 149.836 16.6505C151.161 15.1357 152.908 14.3783 155.075 14.3783C156.148 14.3783 157.105 14.6097 157.946 15.0726C158.788 15.5354 159.419 16.1666 159.84 16.9661V14.7885ZM156.4 26.4023C157.557 26.4023 158.451 26.0236 159.083 25.2661C159.714 24.5087 160.029 23.5514 160.029 22.3943C160.029 21.2581 159.714 20.3114 159.083 19.554C158.451 18.7965 157.557 18.4178 156.4 18.4178C155.306 18.4178 154.422 18.786 153.749 19.5224C153.097 20.2588 152.771 21.2161 152.771 22.3943C152.771 23.5725 153.097 24.5403 153.749 25.2977C154.422 26.0341 155.306 26.4023 156.4 26.4023Z" fill="#0D114F"/>
<path d="M146.158 29.4004C145.569 30.0105 144.833 30.3156 143.949 30.3156C143.066 30.3156 142.319 30.0105 141.709 29.4004C141.12 28.7902 140.825 28.0644 140.825 27.2228C140.825 26.3602 141.12 25.6343 141.709 25.0452C142.319 24.4351 143.066 24.13 143.949 24.13C144.833 24.13 145.569 24.4351 146.158 25.0452C146.769 25.6343 147.074 26.3602 147.074 27.2228C147.074 28.0644 146.769 28.7902 146.158 29.4004Z" fill="url(#paint0_linear)"/>
<path d="M56.404 30H56.104V30.3H56.404V30ZM56.404 14.7885V14.4885H56.104V14.7885H56.404ZM61.2325 14.7885H61.5325V14.4885H61.2325V14.7885ZM61.2325 17.976H60.9325L61.5248 18.0435L61.2325 17.976ZM62.7789 15.4513L62.96 15.6905L62.9609 15.6898L62.7789 15.4513ZM66.6922 14.6623H66.9922V14.4281L66.765 14.3713L66.6922 14.6623ZM66.6922 19.1437L66.6591 19.4418L66.9922 19.4789V19.1437H66.6922ZM61.2325 30V30.3H61.5325V30H61.2325ZM56.704 30V14.7885H56.104V30H56.704ZM56.404 15.0885H61.2325V14.4885H56.404V15.0885ZM60.9325 14.7885V17.976H61.5325V14.7885H60.9325ZM61.5248 18.0435C61.764 17.0071 62.2459 16.2309 62.96 15.6905L62.5979 15.2121C61.7551 15.8499 61.206 16.7568 60.9402 17.9085L61.5248 18.0435ZM62.9609 15.6898C63.7103 15.1178 64.5306 14.8361 65.4299 14.8361V14.2361C64.3936 14.2361 63.4465 14.5644 62.5969 15.2128L62.9609 15.6898ZM65.4299 14.8361C65.9203 14.8361 66.3147 14.8772 66.6195 14.9533L66.765 14.3713C66.3965 14.2791 65.9493 14.2361 65.4299 14.2361V14.8361ZM66.3922 14.6623V19.1437H66.9922V14.6623H66.3922ZM66.7254 18.8455C66.1506 18.7817 65.6549 18.749 65.2405 18.749V19.349C65.6256 19.349 66.0978 19.3795 66.6591 19.4418L66.7254 18.8455ZM65.2405 18.749C63.8368 18.749 62.7373 19.1974 61.999 20.1335C61.2713 21.0559 60.9325 22.405 60.9325 24.13H61.5325C61.5325 22.4677 61.8617 21.2763 62.4701 20.5051C63.0677 19.7474 63.9722 19.349 65.2405 19.349V18.749ZM60.9325 24.13V30H61.5325V24.13H60.9325ZM61.2325 29.7H56.404V30.3H61.2325V29.7ZM80.6815 28.2011L80.4709 27.9875L80.4694 27.989L80.6815 28.2011ZM68.4051 28.2011L68.6157 27.9875L68.6157 27.9875L68.4051 28.2011ZM68.4051 16.619L68.6142 16.834L68.6157 16.8325L68.4051 16.619ZM80.6815 16.619L80.4694 16.8311L80.4724 16.834L80.6815 16.619ZM77.21 25.2661L76.9855 25.0672L76.9855 25.0672L77.21 25.2661ZM77.21 19.5224L76.9855 19.7213L76.9855 19.7213L77.21 19.5224ZM71.8766 19.5224L71.652 19.3235L71.6488 19.3272L71.8766 19.5224ZM71.8766 25.2661L71.6488 25.4614L71.652 25.4651L71.8766 25.2661ZM80.4694 27.989C79.0217 29.4367 77.0632 30.1734 74.5591 30.1734V30.7734C77.1886 30.7734 79.3117 29.9953 80.8937 28.4133L80.4694 27.989ZM74.5591 30.1734C72.0551 30.1734 70.085 29.4367 68.6157 27.9875L68.1944 28.4147C69.7969 29.9952 71.9295 30.7734 74.5591 30.7734V30.1734ZM68.6157 27.9875C67.1426 26.5346 66.4013 24.6786 66.4013 22.3943H65.8013C65.8013 24.8228 66.5958 26.838 68.1944 28.4147L68.6157 27.9875ZM66.4013 22.3943C66.4013 20.1099 67.1425 18.2654 68.6142 16.834L68.1959 16.4039C66.5959 17.9601 65.8013 19.9658 65.8013 22.3943H66.4013ZM68.6157 16.8325C70.085 15.3834 72.0551 14.6467 74.5591 14.6467V14.0467C71.9295 14.0467 69.7969 14.8248 68.1944 16.4054L68.6157 16.8325ZM74.5591 14.6467C77.0632 14.6467 79.0217 15.3834 80.4694 16.8311L80.8937 16.4068C79.3117 14.8248 77.1886 14.0467 74.5591 14.0467V14.6467ZM80.4724 16.834C81.9441 18.2654 82.6853 20.1099 82.6853 22.3943H83.2853C83.2853 19.9658 82.4908 17.9601 80.8907 16.4039L80.4724 16.834ZM82.6853 22.3943C82.6853 24.6786 81.944 26.5346 80.4709 27.9875L80.8922 28.4147C82.4908 26.838 83.2853 24.8228 83.2853 22.3943H82.6853ZM74.5591 26.6707C75.7473 26.6707 76.7175 26.2747 77.4346 25.4651L76.9855 25.0672C76.3981 25.7304 75.601 26.0707 74.5591 26.0707V26.6707ZM77.4346 25.4651C78.1447 24.6634 78.4884 23.6305 78.4884 22.3943H77.8884C77.8884 23.5144 77.5799 24.3961 76.9855 25.0672L77.4346 25.4651ZM78.4884 22.3943C78.4884 21.158 78.1447 20.1252 77.4346 19.3235L76.9855 19.7213C77.5799 20.3924 77.8884 21.2741 77.8884 22.3943H78.4884ZM77.4346 19.3235C76.7175 18.5139 75.7473 18.1178 74.5591 18.1178V18.7178C75.601 18.7178 76.3981 19.0582 76.9855 19.7213L77.4346 19.3235ZM74.5591 18.1178C73.3518 18.1178 72.3702 18.5126 71.652 19.3235L72.1011 19.7213C72.6873 19.0595 73.4941 18.7178 74.5591 18.7178V18.1178ZM71.6488 19.3272C70.9615 20.129 70.6298 21.1605 70.6298 22.3943H71.2298C71.2298 21.2716 71.5292 20.3886 72.1043 19.7176L71.6488 19.3272ZM70.6298 22.3943C70.6298 23.6281 70.9615 24.6596 71.6488 25.4614L72.1043 25.0709C71.5292 24.3999 71.2298 23.5169 71.2298 22.3943H70.6298ZM71.652 25.4651C72.3702 26.276 73.3518 26.6707 74.5591 26.6707V26.0707C73.4941 26.0707 72.6873 25.7291 72.1011 25.0672L71.652 25.4651ZM85.4016 28.2643L85.188 28.4749L85.1895 28.4764L85.4016 28.2643ZM85.4016 16.5558L85.1895 16.3437L85.1895 16.3437L85.4016 16.5558ZM96.826 16.0193L96.6398 16.2546L96.6398 16.2546L96.826 16.0193ZM99.2245 20.5638V20.8638H99.5556L99.523 20.5343L99.2245 20.5638ZM94.3959 20.5638L94.1049 20.6366L94.1617 20.8638H94.3959V20.5638ZM88.9046 19.4593L89.1334 19.6534L89.1334 19.6534L88.9046 19.4593ZM88.9046 25.3293L89.1334 25.1352L89.1334 25.1352L88.9046 25.3293ZM94.3959 24.3509V24.0509H94.1652L94.106 24.2739L94.3959 24.3509ZM99.2245 24.3509L99.5229 24.3811L99.5563 24.0509H99.2245V24.3509ZM96.826 28.8323L97.0099 29.0693L97.0121 29.0676L96.826 28.8323ZM91.3347 30.1734C88.9152 30.1734 87.0196 29.458 85.6137 28.0521L85.1895 28.4764C86.7291 30.016 88.7889 30.7734 91.3347 30.7734V30.1734ZM85.6152 28.0536C84.2064 26.6246 83.4925 24.748 83.4925 22.3943H82.8925C82.8925 24.8795 83.6513 26.9163 85.188 28.4749L85.6152 28.0536ZM83.4925 22.3943C83.4925 20.0404 84.2063 18.1753 85.6137 16.768L85.1895 16.3437C83.6513 17.8819 82.8925 19.9091 82.8925 22.3943H83.4925ZM85.6137 16.768C87.0196 15.3621 88.9152 14.6467 91.3347 14.6467V14.0467C88.7889 14.0467 86.7291 14.8041 85.1895 16.3437L85.6137 16.768ZM91.3347 14.6467C93.5358 14.6467 95.2954 15.1911 96.6398 16.2546L97.0121 15.7841C95.5373 14.6174 93.636 14.0467 91.3347 14.0467V14.6467ZM96.6398 16.2546C97.9808 17.3154 98.7439 18.7534 98.9259 20.5934L99.523 20.5343C99.3263 18.5451 98.4904 16.9535 97.0121 15.7841L96.6398 16.2546ZM99.2245 20.2638H94.3959V20.8638H99.2245V20.2638ZM94.687 20.4911C94.4942 19.7202 94.1179 19.1163 93.5437 18.7095C92.9732 18.3055 92.2385 18.1178 91.3662 18.1178V18.7178C92.1562 18.7178 92.7574 18.8878 93.1968 19.1991C93.6325 19.5077 93.9399 19.9768 94.1049 20.6366L94.687 20.4911ZM91.3662 18.1178C90.2414 18.1178 89.3312 18.4929 88.6759 19.2652L89.1334 19.6534C89.6563 19.0371 90.3872 18.7178 91.3662 18.7178V18.1178ZM88.6759 19.2652C88.0258 20.0314 87.721 21.0881 87.721 22.3943H88.321C88.321 21.1757 88.6053 20.2757 89.1334 19.6534L88.6759 19.2652ZM87.721 22.3943C87.721 23.7004 88.0258 24.7571 88.6759 25.5234L89.1334 25.1352C88.6053 24.5128 88.321 23.6129 88.321 22.3943H87.721ZM88.6759 25.5234C89.3312 26.2956 90.2414 26.6707 91.3662 26.6707V26.0707C90.3872 26.0707 89.6563 25.7515 89.1334 25.1352L88.6759 25.5234ZM91.3662 26.6707C92.2353 26.6707 92.9673 26.4949 93.5367 26.1154C94.1114 25.7322 94.4912 25.1607 94.6859 24.4279L94.106 24.2739C93.943 24.8876 93.639 25.326 93.2038 25.6161C92.7633 25.9098 92.1593 26.0707 91.3662 26.0707V26.6707ZM94.3959 24.6509H99.2245V24.0509H94.3959V24.6509ZM98.926 24.3207C98.7444 26.1168 97.9825 27.5349 96.6398 28.597L97.0121 29.0676C98.4887 27.8996 99.3258 26.3301 99.5229 24.3811L98.926 24.3207ZM96.642 28.5953C95.2975 29.6389 93.537 30.1734 91.3347 30.1734V30.7734C93.6348 30.7734 95.5352 30.2139 97.0099 29.0693L96.642 28.5953ZM115.655 30V30.3H116.263L115.893 29.8173L115.655 30ZM109.753 30L109.511 30.1772L109.601 30.3H109.753V30ZM104.925 23.4042L105.167 23.2269L104.625 22.4865V23.4042H104.925ZM104.925 30V30.3H105.225V30H104.925ZM100.096 30H99.796V30.3H100.096V30ZM100.096 7.90866V7.60866H99.796V7.90866H100.096ZM104.925 7.90866H105.225V7.60866H104.925V7.90866ZM104.925 21.1319H104.625V22.0033L105.161 21.3166L104.925 21.1319ZM109.879 14.7885V14.4885H109.733L109.643 14.6039L109.879 14.7885ZM115.56 14.7885L115.789 14.9818L116.205 14.4885H115.56V14.7885ZM109.501 21.984L109.271 21.7908L109.116 21.9753L109.263 22.1667L109.501 21.984ZM115.655 29.7H109.753V30.3H115.655V29.7ZM109.995 29.8228L105.167 23.2269L104.682 23.5814L109.511 30.1772L109.995 29.8228ZM104.625 23.4042V30H105.225V23.4042H104.625ZM104.925 29.7H100.096V30.3H104.925V29.7ZM100.396 30V7.90866H99.796V30H100.396ZM100.096 8.20866H104.925V7.60866H100.096V8.20866ZM104.625 7.90866V21.1319H105.225V7.90866H104.625ZM105.161 21.3166L110.116 14.9732L109.643 14.6039L104.688 20.9472L105.161 21.3166ZM109.879 15.0885H115.56V14.4885H109.879V15.0885ZM115.33 14.5953L109.271 21.7908L109.73 22.1772L115.789 14.9818L115.33 14.5953ZM109.263 22.1667L115.417 30.1827L115.893 29.8173L109.739 21.8013L109.263 22.1667ZM129.554 23.7197V24.0197H129.824L129.853 23.752L129.554 23.7197ZM118.319 23.7197V23.4197H118.006L118.02 23.7325L118.319 23.7197ZM119.329 26.0236L119.133 26.2503L119.133 26.2503L119.329 26.0236ZM124.726 25.4239V25.1239H124.531L124.452 25.3021L124.726 25.4239ZM129.46 25.4239L129.756 25.4699L129.81 25.1239H129.46V25.4239ZM126.998 29.0848L127.165 29.3344L127.165 29.3338L126.998 29.0848ZM115.763 28.3274L115.556 28.544L115.556 28.544L115.763 28.3274ZM115.763 16.5243L115.971 16.7409L115.972 16.7394L115.763 16.5243ZM127.472 16.3665L127.269 16.5879L127.269 16.5879L127.472 16.3665ZM118.319 20.7216L118.019 20.715L118.013 21.0216H118.319V20.7216ZM124.915 20.7216V21.0216H125.222L125.215 20.7154L124.915 20.7216ZM124.063 18.3863L124.275 18.1741L124.275 18.1741L124.063 18.3863ZM119.235 18.4494L119.443 18.6653L119.443 18.6652L119.235 18.4494ZM129.381 21.6053C129.381 22.2235 129.339 22.9173 129.256 23.6875L129.853 23.752C129.938 22.9653 129.981 22.2494 129.981 21.6053H129.381ZM129.554 23.4197H118.319V24.0197H129.554V23.4197ZM118.02 23.7325C118.065 24.7873 118.428 25.6392 119.133 26.2503L119.526 25.7969C118.968 25.3139 118.658 24.6299 118.619 23.707L118.02 23.7325ZM119.133 26.2503C119.833 26.8567 120.761 27.1441 121.886 27.1441V26.5441C120.864 26.5441 120.088 26.2844 119.526 25.7969L119.133 26.2503ZM121.886 27.1441C123.419 27.1441 124.511 26.6456 125 25.5458L124.452 25.3021C124.099 26.0958 123.298 26.5441 121.886 26.5441V27.1441ZM124.726 25.7239H129.46V25.1239H124.726V25.7239ZM129.163 25.378C128.946 26.7784 128.18 27.9293 126.831 28.8357L127.165 29.3338C128.635 28.3467 129.51 27.0571 129.756 25.4699L129.163 25.378ZM126.832 28.8352C125.502 29.7217 123.859 30.1734 121.886 30.1734V30.7734C123.952 30.7734 125.717 30.2993 127.165 29.3344L126.832 28.8352ZM121.886 30.1734C119.355 30.1734 117.395 29.4753 115.971 28.1107L115.556 28.544C117.118 30.0408 119.241 30.7734 121.886 30.7734V30.1734ZM115.971 28.1107C114.549 26.7487 113.822 24.8565 113.822 22.3943H113.222C113.222 24.9815 113.99 27.0447 115.556 28.544L115.971 28.1107ZM113.822 22.3943C113.822 19.9758 114.548 18.1039 115.971 16.7409L115.556 16.3076C113.991 17.806 113.222 19.8475 113.222 22.3943H113.822ZM115.972 16.7394C117.399 15.3523 119.307 14.6467 121.728 14.6467V14.0467C119.183 14.0467 117.114 14.7928 115.554 16.3091L115.972 16.7394ZM121.728 14.6467C124.024 14.6467 125.861 15.3009 127.269 16.5879L127.674 16.1451C126.136 14.7391 124.145 14.0467 121.728 14.0467V14.6467ZM127.269 16.5879C128.675 17.8729 129.381 19.5364 129.381 21.6053H129.981C129.981 19.3822 129.214 17.5531 127.674 16.1451L127.269 16.5879ZM118.319 21.0216H124.915V20.4216H118.319V21.0216ZM125.215 20.7154C125.193 19.6526 124.892 18.791 124.275 18.1741L123.851 18.5984C124.328 19.0755 124.595 19.7709 124.615 20.7279L125.215 20.7154ZM124.275 18.1741C123.655 17.5541 122.779 17.2657 121.696 17.2657V17.8657C122.675 17.8657 123.377 18.1244 123.851 18.5984L124.275 18.1741ZM121.696 17.2657C120.605 17.2657 119.704 17.5793 119.026 18.2336L119.443 18.6652C119.986 18.1413 120.725 17.8657 121.696 17.8657V17.2657ZM119.026 18.2334C118.371 18.8651 118.042 19.7025 118.019 20.715L118.619 20.7283C118.639 19.8472 118.92 19.1698 119.443 18.6653L119.026 18.2334ZM140.145 26.1498H140.445V25.8039L140.102 25.8528L140.145 26.1498ZM140.145 30L140.198 30.2952L140.445 30.2504V30H140.145ZM135.474 30.1578L135.518 29.8611L135.518 29.8611L135.474 30.1578ZM134.054 29.7475L133.933 30.0223L133.942 30.0261L134.054 29.7475ZM132.76 28.8323L132.536 29.0316L132.536 29.0316L132.76 28.8323ZM131.876 27.1912L131.591 27.2836L131.593 27.2911L131.876 27.1912ZM131.529 18.6072H131.829V18.3072H131.529V18.6072ZM129.131 18.6072H128.831V18.9072H129.131V18.6072ZM129.131 14.7885V14.4885H128.831V14.7885H129.131ZM131.529 14.7885V15.0885H131.829V14.7885H131.529ZM131.529 10.2756V9.97559H131.229V10.2756H131.529ZM136.358 10.2756H136.658V9.97559H136.358V10.2756ZM136.358 14.7885H136.058V15.0885H136.358V14.7885ZM139.798 14.7885H140.098V14.4885H139.798V14.7885ZM139.798 18.6072V18.9072H140.098V18.6072H139.798ZM136.358 18.6072V18.3072H136.058V18.6072H136.358ZM136.894 25.7395L136.682 25.9518L136.689 25.958L136.894 25.7395ZM138.472 26.5445C139.153 26.5445 139.726 26.5126 140.187 26.4468L140.102 25.8528C139.68 25.9132 139.138 25.9445 138.472 25.9445V26.5445ZM139.845 26.1498V30H140.445V26.1498H139.845ZM140.091 29.7048C139.187 29.8692 138.133 29.9525 136.926 29.9525V30.5525C138.159 30.5525 139.251 30.4675 140.198 30.2952L140.091 29.7048ZM136.926 29.9525C136.39 29.9525 135.921 29.9215 135.518 29.8611L135.429 30.4545C135.868 30.5203 136.368 30.5525 136.926 30.5525V29.9525ZM135.518 29.8611C135.127 29.8024 134.676 29.6734 134.165 29.469L133.942 30.0261C134.483 30.2424 134.98 30.387 135.429 30.4545L135.518 29.8611ZM134.175 29.4729C133.683 29.2565 133.288 28.9754 132.984 28.633L132.536 29.0316C132.905 29.4466 133.373 29.7757 133.933 30.0221L134.175 29.4729ZM132.984 28.633C132.683 28.294 132.405 27.7866 132.159 27.0914L131.593 27.2911C131.853 28.0266 132.164 28.6132 132.536 29.0316L132.984 28.633ZM132.162 27.0989C131.942 26.4205 131.829 25.6115 131.829 24.6665H131.229C131.229 25.6572 131.347 26.5313 131.591 27.2836L132.162 27.0989ZM131.829 24.6665V18.6072H131.229V24.6665H131.829ZM131.529 18.3072H129.131V18.9072H131.529V18.3072ZM129.431 18.6072V14.7885H128.831V18.6072H129.431ZM129.131 15.0885H131.529V14.4885H129.131V15.0885ZM131.829 14.7885V10.2756H131.229V14.7885H131.829ZM131.529 10.5756H136.358V9.97559H131.529V10.5756ZM136.058 10.2756V14.7885H136.658V10.2756H136.058ZM136.358 15.0885H139.798V14.4885H136.358V15.0885ZM139.498 14.7885V18.6072H140.098V14.7885H139.498ZM139.798 18.3072H136.358V18.9072H139.798V18.3072ZM136.058 18.6072V23.6566H136.658V18.6072H136.058ZM136.058 23.6566C136.058 24.6961 136.232 25.5021 136.682 25.9517L137.106 25.5274C136.84 25.2616 136.658 24.679 136.658 23.6566H136.058ZM136.689 25.958C137.121 26.3653 137.733 26.5445 138.472 26.5445V25.9445C137.823 25.9445 137.382 25.787 137.1 25.5211L136.689 25.958ZM146.158 29.4004L145.946 29.1882L145.943 29.192L146.158 29.4004ZM141.709 29.4004L141.493 29.6088L141.496 29.6125L141.709 29.4004ZM141.709 25.0452L141.496 24.8331L141.496 24.8331L141.709 25.0452ZM146.158 25.0452L145.942 25.2537L145.95 25.261L146.158 25.0452ZM145.943 29.192C145.413 29.7409 144.755 30.0156 143.949 30.0156V30.6156C144.911 30.6156 145.726 30.2801 146.374 29.6088L145.943 29.192ZM143.949 30.0156C143.143 30.0156 142.473 29.7406 141.921 29.1882L141.496 29.6125C142.164 30.2804 142.988 30.6156 143.949 30.6156V30.0156ZM141.924 29.192C141.389 28.6373 141.125 27.986 141.125 27.2228H140.525C140.525 28.1428 140.85 28.9432 141.493 29.6088L141.924 29.192ZM141.125 27.2228C141.125 26.4366 141.39 25.788 141.921 25.2574L141.496 24.8331C140.849 25.4806 140.525 26.2838 140.525 27.2228H141.125ZM141.921 25.2574C142.473 24.705 143.143 24.43 143.949 24.43V23.83C142.988 23.83 142.164 24.1652 141.496 24.8331L141.921 25.2574ZM143.949 24.43C144.755 24.43 145.413 24.7047 145.943 25.2536L146.374 24.8368C145.726 24.1655 144.911 23.83 143.949 23.83V24.43ZM145.95 25.261C146.501 25.7925 146.774 26.44 146.774 27.2228H147.374C147.374 26.2804 147.037 25.4761 146.367 24.8294L145.95 25.261ZM146.774 27.2228C146.774 27.9826 146.502 28.6328 145.946 29.1882L146.371 29.6125C147.035 28.9477 147.374 28.1462 147.374 27.2228H146.774ZM159.84 14.7885V14.4885H159.54V14.7885H159.84ZM164.637 14.7885H164.937V14.4885H164.637V14.7885ZM164.637 36.3118V36.6118H164.937V36.3118H164.637ZM159.808 36.3118H159.508V36.6118H159.808V36.3118ZM159.808 28.6745V28.3745H159.508V28.6745H159.808ZM159.84 28.6745V28.9745H160.14V28.6745H159.84ZM159.84 27.854H160.14V26.6962L159.578 27.7083L159.84 27.854ZM157.883 29.716L158.025 29.9803L158.027 29.9791L157.883 29.716ZM149.773 28.1696L149.545 28.3651L149.545 28.3651L149.773 28.1696ZM149.836 16.6505L150.062 16.8481L150.062 16.8481L149.836 16.6505ZM157.946 15.0726L157.802 15.3354L157.802 15.3354L157.946 15.0726ZM159.84 16.9661L159.575 17.1058L160.14 16.9661H159.84ZM159.083 25.2661L158.852 25.0741L158.852 25.0741L159.083 25.2661ZM159.083 19.554L158.852 19.746L158.852 19.746L159.083 19.554ZM153.749 19.5224L153.528 19.3199L153.525 19.3235L153.749 19.5224ZM153.749 25.2977L153.522 25.4935L153.528 25.5001L153.749 25.2977ZM159.84 15.0885H164.637V14.4885H159.84V15.0885ZM164.337 14.7885V36.3118H164.937V14.7885H164.337ZM164.637 36.0118H159.808V36.6118H164.637V36.0118ZM160.108 36.3118V28.6745H159.508V36.3118H160.108ZM159.808 28.9745H159.84V28.3745H159.808V28.9745ZM160.14 28.6745V27.854H159.54V28.6745H160.14ZM159.578 27.7083C159.189 28.4086 158.581 28.9916 157.739 29.4528L158.027 29.9791C158.953 29.4725 159.65 28.8142 160.102 27.9997L159.578 27.7083ZM157.742 29.4516C156.926 29.8894 156.018 30.1103 155.011 30.1103V30.7103C156.109 30.7103 157.116 30.4683 158.025 29.9803L157.742 29.4516ZM155.011 30.1103C152.878 30.1103 151.219 29.393 150 27.9741L149.545 28.3651C150.893 29.9337 152.727 30.7103 155.011 30.7103V30.1103ZM150 27.9741C148.772 26.5449 148.148 24.6937 148.148 22.3943H147.548C147.548 24.8076 148.206 26.8066 149.545 28.3651L150 27.9741ZM148.148 22.3943C148.148 20.141 148.791 18.3001 150.062 16.8481L149.61 16.453C148.23 18.0306 147.548 20.0188 147.548 22.3943H148.148ZM150.062 16.8481C151.325 15.4038 152.987 14.6783 155.075 14.6783V14.0783C152.829 14.0783 150.997 14.8676 149.61 16.453L150.062 16.8481ZM155.075 14.6783C156.103 14.6783 157.01 14.8997 157.802 15.3354L158.091 14.8097C157.2 14.3197 156.192 14.0783 155.075 14.0783V14.6783ZM157.802 15.3354C158.595 15.7719 159.183 16.3617 159.575 17.1058L160.106 16.8264C159.656 15.9715 158.981 15.299 158.091 14.8097L157.802 15.3354ZM160.14 16.9661V14.7885H159.54V16.9661H160.14ZM156.4 26.7023C157.629 26.7023 158.615 26.2962 159.313 25.4582L158.852 25.0741C158.288 25.7509 157.485 26.1023 156.4 26.1023V26.7023ZM159.313 25.4582C159.997 24.6378 160.329 23.6088 160.329 22.3943H159.729C159.729 23.494 159.431 24.3797 158.852 25.0741L159.313 25.4582ZM160.329 22.3943C160.329 21.1992 159.996 20.1813 159.313 19.3619L158.852 19.746C159.432 20.4414 159.729 21.317 159.729 22.3943H160.329ZM159.313 19.3619C158.615 18.5239 157.629 18.1178 156.4 18.1178V18.7178C157.485 18.7178 158.288 19.0692 158.852 19.746L159.313 19.3619ZM156.4 18.1178C155.231 18.1178 154.264 18.515 153.528 19.32L153.971 19.7248C154.581 19.057 155.381 18.7178 156.4 18.7178V18.1178ZM153.525 19.3235C152.815 20.1252 152.471 21.158 152.471 22.3943H153.071C153.071 21.2741 153.379 20.3924 153.974 19.7213L153.525 19.3235ZM152.471 22.3943C152.471 23.6308 152.815 24.6722 153.522 25.4935L153.976 25.1019C153.379 24.4084 153.071 23.5141 153.071 22.3943H152.471ZM153.528 25.5001C154.264 26.3051 155.231 26.7023 156.4 26.7023V26.1023C155.381 26.1023 154.581 25.7631 153.971 25.0953L153.528 25.5001Z" fill="white"/>
</g>
<rect width="43.832" height="43.832" rx="7.88976" fill="url(#paint1_linear)"/>
<g filter="url(#filter0_di)">
<path d="M33.258 32.4131H29.3487C29.1852 32.4131 29.0508 32.2854 29.0363 32.1226C29.0317 32.0711 29.0267 32.0211 29.0214 31.9726C28.7973 29.9298 26.5982 28.1753 24.5583 28.4238C23.0692 28.6052 21.8351 29.7293 20.3445 29.8976C19.3393 30.0111 18.4621 29.9594 17.4596 29.7629C16.5809 29.5908 15.7327 29.2757 14.952 28.8372C13.1132 27.8044 12.126 26.741 11.2107 25.1387C10.681 24.2114 10.303 23.1958 10.1655 22.1368C10.0517 21.2603 10.0589 20.4879 10.1544 19.6373C10.3004 18.3379 10.7168 17.0732 11.3964 15.956C12.3504 14.3877 13.3816 13.4126 15.0616 12.4997C15.7731 12.1131 16.5387 11.8305 17.3296 11.6568C19.3324 11.2169 20.629 11.3458 22.5759 11.956C23.6591 12.2955 24.8356 13.023 25.8362 13.9723C28.0243 16.0482 28.1911 19.3058 28.2464 22.3215C28.2516 22.601 27.996 22.8125 27.7209 22.7627C26.3696 22.5184 25.3981 22.4987 24.0703 22.7098C23.7143 22.7664 23.4214 22.398 23.5175 22.0506C23.5591 21.8998 23.5918 21.7518 23.6163 21.6059C24.0088 19.2711 22.4111 16.606 20.0547 16.3763C18.718 16.246 17.3943 16.7918 16.4138 17.8864C15.8286 18.4381 15.5049 19.3034 15.4028 20.2262C15.1383 22.6173 17.0941 24.9295 19.497 25.0439C19.9555 25.0657 20.3982 24.999 20.8505 24.8457C22.2759 24.3625 23.6654 23.6404 25.1662 23.7534C29.6812 24.0934 32.8523 26.1289 33.6866 31.9218C33.724 32.1814 33.5203 32.4131 33.258 32.4131Z" fill="#FAFAFA"/>
</g>
<defs>
<filter id="filter0_di" x="8.44906" y="11.3964" width="26.8744" height="24.2814" filterUnits="userSpaceOnUse" color-interpolation-filters="sRGB">
<feFlood flood-opacity="0" result="BackgroundImageFix"/>
<feColorMatrix in="SourceAlpha" type="matrix" values="0 0 0 0 0 0 0 0 0 0 0 0 0 0 0 0 0 0 127 0"/>
<feOffset dy="1.63237"/>
<feGaussianBlur stdDeviation="0.816183"/>
<feColorMatrix type="matrix" values="0 0 0 0 0 0 0 0 0 0 0 0 0 0 0 0 0 0 0.07 0"/>
<feBlend mode="normal" in2="BackgroundImageFix" result="effect1_dropShadow"/>
<feBlend mode="normal" in="SourceGraphic" in2="effect1_dropShadow" result="shape"/>
<feColorMatrix in="SourceAlpha" type="matrix" values="0 0 0 0 0 0 0 0 0 0 0 0 0 0 0 0 0 0 127 0" result="hardAlpha"/>
<feOffset dy="1.63237"/>
<feGaussianBlur stdDeviation="1.02023"/>
<feComposite in2="hardAlpha" operator="arithmetic" k2="-1" k3="1"/>
<feColorMatrix type="matrix" values="0 0 0 0 0.219608 0 0 0 0 0.533333 0 0 0 0 1 0 0 0 0.13 0"/>
<feBlend mode="normal" in2="shape" result="effect2_innerShadow"/>
</filter>
<linearGradient id="paint0_linear" x1="189.169" y1="-59.0291" x2="177.57" y2="54.1337" gradientUnits="userSpaceOnUse">
<stop stop-color="#5498FF"/>
<stop offset="0.515625" stop-color="#428EFF"/>
<stop offset="1" stop-color="#297FFF"/>
</linearGradient>
<linearGradient id="paint1_linear" x1="52.463" y1="-66.3077" x2="19.6129" y2="48.5381" gradientUnits="userSpaceOnUse">
<stop stop-color="#5498FF"/>
<stop offset="0.515625" stop-color="#428EFF"/>
<stop offset="1" stop-color="#297FFF"/>
</linearGradient>
</defs>
</svg>
